<mxfile host="app.diagrams.net" modified="2021-12-25T11:41:08.560Z" agent="5.0 (Windows NT 10.0; Win64; x64) AppleWebKit/537.36 (KHTML, like Gecko) Chrome/96.0.4664.110 Safari/537.36" etag="QTMUL_F2yIINAbhCdFmZ" version="16.1.0" type="github">
  <diagram id="C5RBs43oDa-KdzZeNtuy" name="Page-1">
    <mxGraphModel dx="2032" dy="832" grid="1" gridSize="10" guides="1" tooltips="1" connect="1" arrows="1" fold="1" page="1" pageScale="1" pageWidth="827" pageHeight="1169" math="0" shadow="0">
      <root>
        <mxCell id="WIyWlLk6GJQsqaUBKTNV-0" />
        <mxCell id="WIyWlLk6GJQsqaUBKTNV-1" parent="WIyWlLk6GJQsqaUBKTNV-0" />
        <mxCell id="WIyWlLk6GJQsqaUBKTNV-3" value="Program begining" style="rounded=1;whiteSpace=wrap;html=1;fontSize=12;glass=0;strokeWidth=1;shadow=0;swimlaneLine=1;sketch=1;" parent="WIyWlLk6GJQsqaUBKTNV-1" vertex="1">
          <mxGeometry x="360" y="40" width="120" height="40" as="geometry" />
        </mxCell>
        <mxCell id="Iv1pvJHtmdgMXJmFteHt-0" value="FileLoader" style="rounded=0;whiteSpace=wrap;html=1;sketch=1;swimlaneLine=1;" vertex="1" parent="WIyWlLk6GJQsqaUBKTNV-1">
          <mxGeometry x="360" y="120" width="120" height="40" as="geometry" />
        </mxCell>
        <mxCell id="Iv1pvJHtmdgMXJmFteHt-6" value="private" style="rounded=0;whiteSpace=wrap;html=1;glass=0;sketch=1;swimlaneLine=1;" vertex="1" parent="WIyWlLk6GJQsqaUBKTNV-1">
          <mxGeometry x="240" y="200" width="200" height="40" as="geometry" />
        </mxCell>
        <mxCell id="Iv1pvJHtmdgMXJmFteHt-7" value="wmb::FileLoader::decompose" style="rounded=0;whiteSpace=wrap;html=1;glass=0;sketch=1;swimlaneLine=1;" vertex="1" parent="WIyWlLk6GJQsqaUBKTNV-1">
          <mxGeometry x="240" y="240" width="200" height="40" as="geometry" />
        </mxCell>
        <mxCell id="Iv1pvJHtmdgMXJmFteHt-8" value="" style="rounded=0;whiteSpace=wrap;html=1;glass=0;sketch=1;swimlaneLine=1;" vertex="1" parent="WIyWlLk6GJQsqaUBKTNV-1">
          <mxGeometry x="240" y="320" width="120" height="40" as="geometry" />
        </mxCell>
        <mxCell id="Iv1pvJHtmdgMXJmFteHt-14" value="wmb::deck" style="swimlane;fontStyle=0;childLayout=stackLayout;horizontal=1;startSize=30;horizontalStack=0;resizeParent=1;resizeParentMax=0;resizeLast=0;collapsible=1;marginBottom=0;rounded=0;glass=0;sketch=1;swimlaneLine=1;" vertex="1" parent="WIyWlLk6GJQsqaUBKTNV-1">
          <mxGeometry x="240" y="440" width="140" height="150" as="geometry">
            <mxRectangle x="220" y="620" width="90" height="30" as="alternateBounds" />
          </mxGeometry>
        </mxCell>
        <mxCell id="Iv1pvJHtmdgMXJmFteHt-15" value="wmb::stream** stream" style="text;strokeColor=none;fillColor=none;align=left;verticalAlign=middle;spacingLeft=4;spacingRight=4;overflow=hidden;points=[[0,0.5],[1,0.5]];portConstraint=eastwest;rotatable=0;rounded=0;glass=0;sketch=1;swimlaneLine=1;" vertex="1" parent="Iv1pvJHtmdgMXJmFteHt-14">
          <mxGeometry y="30" width="140" height="30" as="geometry" />
        </mxCell>
        <mxCell id="Iv1pvJHtmdgMXJmFteHt-16" value="unsigned int size" style="text;strokeColor=none;fillColor=none;align=left;verticalAlign=middle;spacingLeft=4;spacingRight=4;overflow=hidden;points=[[0,0.5],[1,0.5]];portConstraint=eastwest;rotatable=0;rounded=0;glass=0;sketch=1;swimlaneLine=1;" vertex="1" parent="Iv1pvJHtmdgMXJmFteHt-14">
          <mxGeometry y="60" width="140" height="30" as="geometry" />
        </mxCell>
        <mxCell id="Iv1pvJHtmdgMXJmFteHt-19" value="wmb::stream*Â  checklist" style="text;strokeColor=none;fillColor=none;align=left;verticalAlign=middle;spacingLeft=4;spacingRight=4;overflow=hidden;points=[[0,0.5],[1,0.5]];portConstraint=eastwest;rotatable=0;rounded=0;glass=0;sketch=1;swimlaneLine=1;" vertex="1" parent="Iv1pvJHtmdgMXJmFteHt-14">
          <mxGeometry y="90" width="140" height="30" as="geometry" />
        </mxCell>
        <mxCell id="Iv1pvJHtmdgMXJmFteHt-17" value="unsigned int checklist_cnt" style="text;strokeColor=none;fillColor=none;align=left;verticalAlign=middle;spacingLeft=4;spacingRight=4;overflow=hidden;points=[[0,0.5],[1,0.5]];portConstraint=eastwest;rotatable=0;rounded=0;glass=0;sketch=1;swimlaneLine=1;" vertex="1" parent="Iv1pvJHtmdgMXJmFteHt-14">
          <mxGeometry y="120" width="140" height="30" as="geometry" />
        </mxCell>
        <mxCell id="Iv1pvJHtmdgMXJmFteHt-21" value="wmb::stream" style="swimlane;fontStyle=0;childLayout=stackLayout;horizontal=1;startSize=30;horizontalStack=0;resizeParent=1;resizeParentMax=0;resizeLast=0;collapsible=1;marginBottom=0;rounded=0;glass=0;sketch=1;swimlaneLine=1;" vertex="1" parent="WIyWlLk6GJQsqaUBKTNV-1">
          <mxGeometry x="440" y="440" width="140" height="90" as="geometry">
            <mxRectangle x="220" y="620" width="90" height="30" as="alternateBounds" />
          </mxGeometry>
        </mxCell>
        <mxCell id="Iv1pvJHtmdgMXJmFteHt-22" value="unsgiend int size" style="text;strokeColor=none;fillColor=none;align=left;verticalAlign=middle;spacingLeft=4;spacingRight=4;overflow=hidden;points=[[0,0.5],[1,0.5]];portConstraint=eastwest;rotatable=0;rounded=0;glass=0;sketch=1;swimlaneLine=1;" vertex="1" parent="Iv1pvJHtmdgMXJmFteHt-21">
          <mxGeometry y="30" width="140" height="30" as="geometry" />
        </mxCell>
        <mxCell id="Iv1pvJHtmdgMXJmFteHt-23" value="unsigned char* data" style="text;strokeColor=none;fillColor=none;align=left;verticalAlign=middle;spacingLeft=4;spacingRight=4;overflow=hidden;points=[[0,0.5],[1,0.5]];portConstraint=eastwest;rotatable=0;rounded=0;glass=0;sketch=1;swimlaneLine=1;" vertex="1" parent="Iv1pvJHtmdgMXJmFteHt-21">
          <mxGeometry y="60" width="140" height="30" as="geometry" />
        </mxCell>
      </root>
    </mxGraphModel>
  </diagram>
</mxfile>
